{"title":"The.Rachel.Maddow.Show.2013.03.21.+.Talking.Hubris.2013.03.22.x2","uid":8289703,"size":425908907,"categoryP":"video","categoryS":"tv_shows","magnet":"?xt=urn:btih:adb06fa696d5e9f6ef3731145f38d7fe0bfd8358&amp;dn=The.Rachel.Maddow.Show.2013.03.21.%2B.Talking.Hubris.2013.03.22.x2&amp;tr=udp%3A%2F%2Ftracker.openbittorrent.com%3A80&amp;tr=udp%3A%2F%2Fopen.demonii.com%3A1337&amp;tr=udp%3A%2F%2Ftracker.coppersurfer.tk%3A6969&amp;tr=udp%3A%2F%2Fexodus.desync.com%3A6969","seeders":1,"leechers":0,"uploader":"BoonesFerry","files":1,"time":1364019026,"description":"This torrent contains two full shows - mkv\n\n(1) The Rachel Maddow Show March 21 - 2013\n(2) Talking Hubris March 22 - 2013\n\nPlus about 10 minutes of March 22s Martin Bashir and Hardball\n\n\nIf you haven't seen HUBRIS yet it is available here &lt;a href=&quot;\nhttps://thepiratebay.se/torrent/8165717/Rachel_Maddow_.__Hubris_Special_._2013.02.18_XviD&quot; rel=&quot;nofollow&quot; target=&quot;_NEW&quot;&gt;\nhttps://thepiratebay.se/torrent/8165717/Rachel_Maddow_.__Hubris_Special_._2013.02.18_XviD&lt;/a&gt;\n\n\nVideo\t\t\t\t : mkv\nID                               : 1\nFormat                           : AVC\nFormat/Info                      : Advanced Video Codec\nFormat profile                   : &lt;a class=&quot;__cf_email__&quot; href=&quot;/cdn-cgi/l/email-protection&quot; data-cfemail=&quot;d098b9b7b8909ce3fee0&quot;&gt;[email&amp;#160;protected]&lt;/a&gt;&lt;script cf-hash='f9e31' type=&quot;text/javascript&quot;&gt;\n/* &lt;![CDATA[ */!function(){try{var t=&quot;currentScript&quot;in document?document.currentScript:function(){for(var t=document.getElementsByTagName(&quot;script&quot;),e=t.length;e--;)if(t[e].getAttribute(&quot;cf-hash&quot;))return t[e]}();if(t&amp;&amp;t.previousSibling){var e,r,n,i,c=t.previousSibling,a=c.getAttribute(&quot;data-cfemail&quot;);if(a){for(e=&quot;&quot;,r=parseInt(a.substr(0,2),16),n=2;a.length-n;n+=2)i=parseInt(a.substr(n,2),16)^r,e+=String.fromCharCode(i);e=document.createTextNode(e),c.parentNode.replaceChild(e,c)}}}catch(u){}}();/* ]]&gt; */&lt;/script&gt;\nFormat settings, CABAC           : Yes\nFormat settings, ReFrames        : 4 frames\nCodec ID                         : V_MPEG4/ISO/AVC\nDuration                         : 1h 45mn\nBit rate                         : 450 Kbps\nWidth                            : 624 pixels\nHeight                           : 352 pixels\nDisplay aspect ratio             : 16:9\nFrame rate                       : 29.970 fps\nColor space                      : YUV\nChroma subsampling               : 4:2:0\nBit depth                        : 8 bits\nScan type                        : Progressive\nBits/(Pixel*Frame)               : 0.068\nStream size                      : 325 MiB (80%)\nWriting library                  : x264 core 120\n\n\nAudio\nID                               : 2\nFormat                           : Vorbis\nFormat settings, Floor           : 1\nCodec ID                         : A_VORBIS\nDuration                         : 1h 45mn\nBit rate mode                    : Variable\nBit rate                         : 96.0 Kbps\nChannel(s)                       : 2 channels\nSampling rate                    : 48.0 KHz\nCompression mode                 : Lossy\nStream size                      : 72.6 MiB (18%)\n\nWorks fine using VLC","torrent":{"xt":"urn:btih:adb06fa696d5e9f6ef3731145f38d7fe0bfd8358","amp;dn":"The.Rachel.Maddow.Show.2013.03.21.%2B.Talking.Hubris.2013.03.22.x2","amp;tr":["udp%3A%2F%2Ftracker.openbittorrent.com%3A80","udp%3A%2F%2Fopen.demonii.com%3A1337","udp%3A%2F%2Ftracker.coppersurfer.tk%3A6969","udp%3A%2F%2Fexodus.desync.com%3A6969"],"infoHash":"adb06fa696d5e9f6ef3731145f38d7fe0bfd8358","infoHashBuffer":{"type":"Buffer","data":[173,176,111,166,150,213,233,246,239,55,49,20,95,56,215,254,11,253,131,88]},"announce":[],"urlList":[]}}